<?xml version="1.0" standalone="no"?>
<!DOCTYPE svg PUBLIC "-//W3C//DTD SVG 20010904//EN"
 "http://www.w3.org/TR/2001/REC-SVG-20010904/DTD/svg10.dtd">
<svg version="1.0" xmlns="http://www.w3.org/2000/svg"
 width="192.000000pt" height="192.000000pt" viewBox="0 0 192.000000 192.000000"
 preserveAspectRatio="xMidYMid meet">
<metadata>
Created by potrace 1.14, written by Peter Selinger 2001-2017
</metadata>
<g transform="translate(0.000000,192.000000) scale(0.100000,-0.100000)"
fill="#000000" stroke="none">
<path d="M193 1594 c-8 -21 -8 -21 155 -244 74 -102 151 -207 170 -235 20 -27
53 -73 74 -101 21 -28 38 -55 38 -61 0 -6 -17 -30 -38 -54 -21 -24 -74 -89
-117 -143 -44 -55 -124 -154 -177 -220 -54 -67 -98 -129 -98 -138 0 -17 32
-18 524 -18 l524 0 10 28 c5 15 20 56 32 92 12 36 28 79 35 95 41 95 16 144
-29 57 -37 -72 -118 -133 -225 -169 -64 -22 -758 -32 -745 -11 9 15 76 100 85
108 3 3 35 41 70 86 35 44 108 135 162 201 53 67 97 126 97 131 0 5 -33 53
-72 106 -40 53 -100 133 -132 179 -33 45 -88 121 -123 168 -35 48 -63 89 -63
93 0 3 136 6 303 6 327 -1 393 -9 502 -61 57 -27 126 -93 145 -138 11 -29 50
-45 50 -22 0 5 -22 69 -49 143 l-49 133 -526 3 c-480 2 -527 1 -533 -14z"/>
<path d="M1617 922 c-34 -37 -15 -82 33 -82 47 0 78 58 48 88 -18 18 -63 14
-81 -6z"/>
<path d="M1517 720 c-35 -28 -67 -82 -67 -114 0 -43 31 -28 57 26 22 46 54 74
73 63 8 -5 -38 -157 -70 -230 -27 -63 -14 -108 38 -133 47 -22 95 -9 138 40
30 33 51 95 37 109 -16 16 -33 2 -54 -47 -22 -48 -58 -81 -70 -63 -8 14 3 57
47 171 41 107 43 140 9 173 -31 32 -100 35 -138 5z"/>
</g>
</svg>
